<?xml version="1.0" standalone="no"?>
<!DOCTYPE svg PUBLIC "-//W3C//DTD SVG 20010904//EN"
 "http://www.w3.org/TR/2001/REC-SVG-20010904/DTD/svg10.dtd">
<svg version="1.0" xmlns="http://www.w3.org/2000/svg"
 width="640.000000pt" height="640.000000pt" viewBox="0 0 640.000000 640.000000"
 preserveAspectRatio="xMidYMid meet">
<metadata>
Created by potrace 1.11, written by Peter Selinger 2001-2013
</metadata>
<g transform="translate(0.000000,640.000000) scale(0.100000,-0.100000)"
fill="#000000" stroke="none">
<path d="M0 3200 l0 -3200 3200 0 3200 0 0 3200 0 3200 -3200 0 -3200 0 0
-3200z m3085 2216 c44 -19 69 -66 62 -118 -7 -50 -13 -57 -116 -125 -105 -71
-258 -221 -328 -324 -123 -179 -216 -422 -244 -637 -6 -48 -15 -92 -20 -98 -7
-9 -28 -8 -82 4 -96 20 -423 22 -527 3 -216 -39 -396 -116 -555 -237 -123 -93
-144 -104 -194 -104 -31 0 -49 7 -73 29 -29 26 -33 35 -33 80 0 45 4 54 40 92
51 53 179 149 258 193 136 76 360 149 513 166 184 20 242 22 354 10 71 -8 116
-8 122 -2 5 5 16 43 24 83 75 368 304 729 582 918 123 83 155 93 217 67z m395
-32 c225 -130 409 -331 534 -581 53 -107 132 -332 142 -403 4 -27 12 -54 18
-59 6 -5 39 -5 81 1 111 16 392 4 514 -22 212 -45 397 -125 549 -240 102 -77
132 -116 132 -174 -1 -64 -48 -107 -118 -108 -34 0 -51 8 -110 56 -300 242
-687 329 -1128 252 -89 -15 -104 -10 -104 36 0 89 -86 381 -150 509 -109 216
-277 401 -483 532 -123 78 -131 186 -17 239 27 13 74 1 140 -38z m-352 -820
c21 -15 22 -21 22 -175 l0 -159 75 0 75 0 0 155 c0 142 2 157 20 175 32 32
120 21 134 -17 3 -8 1 -67 -4 -131 -15 -183 -16 -179 24 -186 55 -10 86 -64
64 -112 -11 -24 -18 -27 -75 -39 -39 -8 -37 4 -58 -355 -19 -331 -24 -377 -42
-391 -10 -9 -20 -9 -38 -1 l-25 12 0 365 0 365 -75 0 -75 0 0 -363 c0 -376 -1
-387 -41 -387 -36 0 -42 27 -55 253 -20 322 -33 487 -39 498 -4 5 -21 9 -39 9
-42 0 -70 30 -70 76 0 39 10 49 68 65 l38 10 -6 87 c-4 48 -9 114 -12 147 -5
51 -3 64 16 88 25 32 81 37 118 11z m-2108 -889 c21 -21 39 -61 70 -159 23
-72 55 -160 71 -195 97 -215 330 -458 561 -586 56 -32 122 -69 146 -82 23 -13
42 -28 42 -34 0 -5 -24 -58 -54 -117 -106 -212 -154 -389 -163 -602 -7 -167
13 -311 64 -455 20 -55 37 -116 40 -135 8 -69 -69 -142 -133 -126 -54 14 -96
73 -136 191 -21 61 -45 151 -54 200 -18 103 -20 329 -3 439 23 151 83 354 136
460 13 26 22 54 19 61 -2 7 -28 26 -58 42 -75 40 -239 165 -327 248 -183 173
-331 419 -392 652 -25 95 -26 131 -5 171 34 66 121 79 176 27z m977 -20 c76
-30 141 -55 145 -55 4 0 14 13 23 30 28 55 82 63 126 19 16 -16 19 -28 13 -68
-5 -36 -3 -49 7 -53 8 -3 104 -43 214 -87 110 -45 252 -103 315 -128 129 -52
150 -66 143 -93 -13 -48 -19 -46 -369 70 -186 62 -344 113 -352 114 -15 1 -67
-126 -54 -132 4 -2 162 -56 352 -120 367 -124 373 -127 337 -176 -14 -19 -17
-19 -133 12 -279 75 -577 152 -590 152 -7 0 -20 -13 -29 -30 -48 -93 -156 -62
-142 40 3 22 4 40 2 40 -14 0 -284 74 -297 81 -35 19 -14 127 27 143 9 3 85
-16 168 -44 83 -27 152 -48 153 -47 11 15 43 132 37 137 -4 4 -72 29 -151 55
-98 32 -145 53 -153 66 -19 37 22 129 58 129 7 0 75 -25 150 -55z m3523 40
c61 -32 73 -93 41 -216 -57 -222 -208 -478 -380 -642 -89 -84 -256 -213 -339
-260 -30 -16 -56 -35 -58 -41 -3 -7 11 -46 30 -88 43 -94 77 -202 107 -338 21
-91 24 -132 24 -305 0 -220 -5 -257 -62 -425 -41 -120 -70 -166 -121 -187 -42
-17 -70 -12 -111 23 -49 41 -50 77 -3 218 58 173 76 297 69 465 -10 212 -59
397 -162 601 -31 62 -54 118 -51 126 3 7 37 29 75 49 237 119 407 258 553 455
83 111 121 188 177 359 30 91 60 165 74 179 40 43 88 53 137 27z m-895 -19
c20 -30 29 -87 17 -104 -8 -13 -262 -102 -289 -102 -22 0 -23 -17 -1 -81 11
-35 22 -66 24 -67 1 -2 66 17 143 42 78 25 150 46 161 46 52 0 83 -115 38
-144 -13 -7 -85 -29 -160 -47 l-137 -33 6 -41 c5 -37 2 -44 -27 -68 -17 -15
-39 -27 -49 -27 -26 0 -57 26 -71 60 -7 16 -19 30 -26 30 -8 0 -169 -39 -359
-86 -370 -93 -380 -94 -373 -35 3 27 16 32 530 196 l176 56 -20 62 c-11 34
-23 65 -27 69 -6 7 -116 -25 -496 -147 l-209 -67 -18 22 c-10 12 -18 26 -18
30 0 19 58 46 340 155 379 146 362 138 353 173 -15 58 6 96 59 107 23 5 35 2
54 -16 13 -12 26 -31 30 -42 7 -24 16 -22 164 36 134 53 163 57 185 23z m-880
-1063 c124 -150 227 -273 228 -273 2 0 22 9 45 20 52 25 58 25 87 -5 32 -31
32 -66 0 -103 -14 -17 -25 -33 -25 -36 0 -4 45 -60 100 -126 55 -67 100 -125
100 -130 0 -17 -50 -68 -80 -80 -39 -16 -48 -9 -152 135 -44 61 -83 111 -87
113 -4 1 -33 -16 -64 -38 l-57 -41 22 -32 c12 -18 53 -74 90 -124 41 -56 68
-103 68 -117 0 -28 -43 -74 -78 -82 -32 -9 -50 11 -138 148 -42 65 -77 118
-79 118 -1 0 -19 -7 -40 -15 -40 -17 -64 -14 -87 13 -33 36 -31 59 7 100 l35
40 -49 78 c-27 44 -114 182 -195 309 -80 126 -146 237 -146 246 0 24 45 45 64
30 8 -6 78 -100 157 -209 79 -108 174 -238 211 -289 l69 -92 59 45 59 45 -163
222 c-89 122 -186 254 -214 293 -29 40 -52 79 -52 87 0 9 10 23 22 31 18 13
25 13 40 3 9 -6 119 -135 243 -284z m-753 260 c10 -9 18 -20 18 -25 0 -6 -47
-74 -103 -151 -57 -78 -154 -211 -215 -295 -62 -84 -112 -156 -112 -160 1 -4
26 -24 56 -46 55 -37 57 -38 74 -20 9 11 108 144 219 297 133 182 209 277 220
277 28 0 54 -35 43 -57 -6 -10 -96 -152 -200 -315 l-190 -298 34 -34 c38 -38
42 -60 18 -94 -24 -35 -60 -45 -97 -27 -16 8 -33 15 -37 15 -4 0 -42 -55 -85
-122 -42 -68 -84 -128 -92 -135 -30 -24 -123 31 -123 72 0 12 41 78 90 146 50
67 90 125 90 129 0 3 -26 25 -58 47 l-59 42 -91 -125 c-51 -69 -99 -127 -107
-130 -39 -15 -115 34 -115 75 0 11 45 75 101 142 96 115 100 122 81 135 -10 7
-25 26 -31 43 -10 24 -10 34 3 60 22 41 55 48 106 23 l41 -20 147 176 c81 96
178 212 216 256 131 155 124 150 158 119z m355 -1254 c284 -275 602 -409 969
-409 148 0 169 -4 211 -43 50 -45 33 -140 -31 -175 -50 -28 -327 -24 -470 7
-135 28 -239 63 -331 109 -110 54 -313 192 -393 266 -83 76 -68 76 -162 -8
-30 -27 -98 -77 -150 -112 -286 -187 -581 -276 -859 -259 -130 8 -174 23 -202
69 -23 37 -24 67 -5 104 33 63 39 65 239 67 250 2 375 31 584 136 143 71 278
166 392 277 47 45 87 82 89 82 3 0 56 -50 119 -111z"/>
</g>
</svg>
